<svg id="Camada_1" data-name="Camada 1" xmlns="http://www.w3.org/2000/svg" viewBox="0 0 574.96 505.14"><defs><style>.cls-1{fill:#e61876;}</style></defs><path class="cls-1" d="M528.43,51.33h0l-.24-.24-.35-.35,0,0h0C472.23-4.16,379-4,323.75,51.24L287.32,87.67l-33.21-33.2c-27-27-62.47-42.23-99.83-42.82A136.94,136.94,0,0,0,54.18,52.3l-1.09,1.1C-3.34,109.82-4.74,203.77,50,258.54l232.8,232.8,138.8-138.8.66.66a141,141,0,0,0,10.67-12l90.37-90.37C580.49,193.69,582.65,106.23,528.43,51.33ZM420.64,330.26l-41.1,41.1a165.55,165.55,0,0,0,10.39-67.48l.78-.26-1.28-6.3a121.37,121.37,0,0,0-4.63-24.41l-.27.09-19.07-94.53L392.23,149c22.58,29.41,49.44,73.57,50,117.85C442.52,290.26,435.25,311.53,420.64,330.26ZM124.77,266.82c.55-44.32,27.46-88.53,50.05-117.93L203.25,180l-19.87,97.47c-2.88,8.47-14,47.1,2.89,94l-29.93-29.93h0C135,320.25,124.42,295.11,124.77,266.82ZM43.1,93.75C83.88,45.1,158.65,60.94,213.39,82.28c0,0-28.72,28.73-39.81,41.74-16.26-13-52.66-37.19-91.42-30.38C62.39,97.12,45,108.11,30.21,126.39A133.23,133.23,0,0,1,43.1,93.75Zm297.6-.64,39.47,42.82L346.31,173.8l24.5,119.39-25.72,4.94-55.5-36.23V228.42l38.48-22.29L321,148.72h26.6v-16h-49.1l9.33,66H259.51l12.08-66h-56l3.29,16h29.64L237,207.37l37.05,22.12,1.65,34.32L223,298.26l-23.06-5L223,173l-33.77-37.89,37-42L278,113.5c1.43.85,2.26,1.36,2.37,1.43l.24-.4,4.15,1.64,3.85-1.59.27.47c.15-.09,1.55-.89,4-2.23ZM284.76,321.19l-41.58-14,41.58-28.41L324.88,307a183.86,183.86,0,0,0-21.83,7.81Zm-43,45.29c-8.16,15.75-10.8,33.16-8,52-37.62-42.31-42-84.41-39.74-110.52l38.56,13.32-.05.26c.07,0,1.24.29,3.19.83l19.32,6.67c4.15,1.71,8.63,3.77,13.22,6.16C257.9,343.47,248.37,353.76,241.77,366.48Zm60.49-33.07,71.21-24c.54,26.82-5.9,67.25-39.94,106.82,2.29-18-.47-34.65-8.31-49.77-6.6-12.72-16.13-23-26.52-31.27C299.9,334.59,301.08,334,302.26,333.41ZM356.52,83.7c58.62-22.13,140.37-39.84,182,10.37l.26-.22A118.1,118.1,0,0,1,550.26,132c-15.42-20.89-34.14-33.64-55.93-38-42.15-8.34-83.11,17.4-100.52,30.4C382.52,111.19,356.52,83.7,356.52,83.7ZM335.39,62.89c45-45,118.37-48.72,168.2-11.31C442.13,31.63,361,61.67,315.35,82.93ZM154,28.11c33.07.53,64.48,14,88.46,38l20,20c-40.2-20.64-117.88-53.4-179.59-36.36A120.61,120.61,0,0,1,152,28.1ZM26.31,163.33C41.9,132,61.61,114,85,109.87c32-5.65,63.88,15.62,78.19,26.95C138.81,168,109,216.35,108.3,266.57A118,118,0,0,0,111.81,297L61.68,246.9C39.1,224.31,27.35,194.16,26.31,163.33ZM257.43,442.65l.32-.14c-10.93-26-11.4-49.05-1.39-68.39,6.38-12.34,16.39-22.1,27.14-29.68,10.74,7.58,20.75,17.34,27.14,29.68,9.82,19,9.52,41.51-.82,67l-27,27ZM455.6,295.29a118.14,118.14,0,0,0,3.09-28.72c-.64-50-30.2-98.08-54.46-129.27,15.7-11.56,51.75-34,86.9-27.06C515,115,534.81,132.85,550,163.34c-3.7,27.27-16.49,54-38.31,75.86Z"/></svg>