<svg id="Camada_1" data-name="Camada 1" xmlns="http://www.w3.org/2000/svg" viewBox="0 0 530.5 600.53"><defs><style>.cls-1{fill:#e61876;}</style></defs><path class="cls-1" d="M407.32,212l-67.39-76.39-71.25,31.45-71.9-31.45L127.14,212l46.21,50.55-29.2,143.3,124.53,43,123.88-41.73L363,260.8ZM268.68,427.69l-48.63-16.37,48.63-33.21,47.17,33.21ZM369.29,395l-30.69,5.77-65.51-42.36V319.21l45.62-28.72L311,220.69h28v-19H284.72l10.92,77H239.15l14.12-77H187.8l3.85,19h34.66l-13.48,71.24,43.33,27.2,1.92,40.8-61.62,40.62-27-5.68,27-140.53L157,210.07,200.3,161l68.35,27,65.44-27,46.15,50.07-39.59,44.29Z"/><path class="cls-1" d="M267.1,586.19,124.45,474l-112-177.41L96.29,64.75l119.8-53.17,51.48,97.08L323.34,11.6,439,64.82l85.13,235.35L414.54,475.4ZM139,461,267.36,561.9l132.75-99.75L502.83,297.9,423.63,79l-92.36-42.5-64.38,112-59.4-112L111.61,79,33.73,294.31Z"/></svg>