<svg id="Camada_1" data-name="Camada 1" xmlns="http://www.w3.org/2000/svg" viewBox="0 0 470.52 542.6"><defs><style>.cls-1{fill:#e61876;}</style></defs><path class="cls-1" d="M235.82,15.16l-225,129.08V402.53l225,129.08,225-129.08V144.24Zm206,243L324.42,131.6l43.08-19.42,74.32,43.22ZM355.17,442.41,245.82,503.9V426.68l97.54-32.5ZM129.57,392.7l96.25,34.07V503.9L117.51,441.17ZM240,408.82l-48.62-16.36L240,359.24l47.18,33.22Zm73.23-166.23-.75.16,9.29,41.5,18.85,91.84-32,5.78L241.82,339.5V300.34l46.91-28-6.36-69.12h24.45v-19H256.05l10.91,77H210.47l14.13-77H159.12l3.85,19h34.67l-13.48,70.56,43.32,26.86,1.93,40.63-61.62,40.53-27-5.73,26.95-140.55L128.3,191.21l5.25-5.94,41.21-41.92,31.48,12.42,32.27,14.54,23.11-10.15,43.79-18,46.16,50.07L312,236.48Zm-1.62-125.42-.36-.41-61.37,27.09,42.87-76.41,57.32,32.84Zm-143.5-.41-.45.5-37.45-16.87,57.28-32.81,39.16,74.79ZM276,57.86l-37.19,66.3L204.21,58l36-20.65ZM107.39,112.21l45.52,20-55,60.92-1.76.17L29.82,258.85V155.4ZM29.82,286.31l79.63-78.76,34.14,36.15-8.79,45.81L101.16,431.15,29.82,391.37ZM372.45,432.39l-18.06-85.62L333.8,241.93l32.38-37.82,75.64,82.09V391.37Z"/></svg>