<svg id="Camada_1" data-name="Camada 1" xmlns="http://www.w3.org/2000/svg" viewBox="0 0 604.95 568.76"><defs><style>.cls-1{fill:#e61876;}</style></defs><path class="cls-1" d="M206.11,261.39,176.91,404.7l124.53,43L425.32,406,395.79,259.63l44.29-48.79-67.39-76.38-71.25,31.45-71.9-31.45L159.9,210.84Zm95.33,165.13-48.63-16.37,48.63-33.22,47.17,33.22Zm-68.38-266.7,68.34,27,65.45-27L413,209.88l-39.59,44.29,28.64,139.61-30.11,5.78L307,357.2V318l45-25.83-8.24-66.92H372v-20H317.48l10.91,77H271.91l14.12-77H220.56l3.85,20h34.66l-13.48,68.36,43.33,25.76,1.92,40.07-61.62,40.26-27-5.87,27-140.62-39.48-44.31Z"/><path class="cls-1" d="M592,217.19,499,165V76.52L381.1,9.52,302.41,54,223.78,9.52,106,76.52V165L14,217.19V350.37l92,52.92v90.39l123.48,63.77,72.88-41.73,73,41.73L499,493.68V403.29l93-52.92ZM381.2,31.66,480,87.72v66.35L322.29,65ZM480,176.19V392.12L303,493.53,126,392.12V176.19L303,76.08ZM126,87.72l98.14-56.06L283.39,65,126,154.07ZM33,339.21V228.42l73-41.35v194ZM229.38,535.54,126,481.94V414.31l157.57,90.32ZM480,481.94l-104,53.6L322.1,504.63,480,414.31Zm92-142.73L499,381.1v-194l73,41.35Z"/></svg>