<svg id="Camada_1" data-name="Camada 1" xmlns="http://www.w3.org/2000/svg" viewBox="0 0 592.54 704.23"><defs><style>.cls-1{fill:#e61876;}</style></defs><path class="cls-1" d="M562.76,336.71V218.08c15-4.12,23-16.59,23-31.29A32.81,32.81,0,0,0,553,154.06c-18,0-33,14.68-33,32.73,0,14.7,11.81,27.17,22.81,31.29V329.57l-35.28,41.35,14.78,60.32a32.82,32.82,0,1,0,19.1-3.49L528.89,376Zm-9.82-163.4a13.48,13.48,0,1,1-13.48,13.48A13.49,13.49,0,0,1,552.94,173.31ZM551,460.24a13.48,13.48,0,1,1-13.48-13.48A13.5,13.5,0,0,1,551,460.24Z"/><path class="cls-1" d="M119.11,501.51l38.53-172.79-45.88-45.78V137.2c15-4.12,23.21-16.59,23.21-31.29a32.69,32.69,0,1,0-65.37,0c0,14.7,11.16,27.17,23.16,31.29V290.91l43.91,43.94L100.42,496.92a32.78,32.78,0,1,0,18.69,4.59ZM102.33,92.43a13.48,13.48,0,1,1-13.48,13.48A13.49,13.49,0,0,1,102.33,92.43Zm0,450.61a13.48,13.48,0,1,1,13.48-13.48A13.49,13.49,0,0,1,102.33,543Z"/><path class="cls-1" d="M423.76,561.39V444.83L393.82,301.21l44.34-48.58-.1.05h.7V71.73c16-4.13,23.39-16.59,23.39-31.29a32.71,32.71,0,1,0-65.42,0c0,14.7,12,27.16,23,31.29V231.88l-42-48V110.24c15-4.12,23.08-16.59,23.08-31.29a32.78,32.78,0,0,0-32.75-32.73C350,46.22,335,60.9,335,79c0,14.7,11.76,27.17,22.76,31.29v71.25l-50,22.1V144.9c16-4.12,23.42-16.58,23.42-31.28a32.72,32.72,0,1,0-65.43,0c0,14.7,12,27.16,23,31.28v58l-50-21.9V110.24C254.76,106.12,262,93.65,262,79a32.7,32.7,0,1,0-65.39,0c0,14.7,11.13,27.17,23.13,31.29v74.42l-43,46.46V71.73c16-4.13,23.44-16.59,23.44-31.29a32.72,32.72,0,1,0-65.43,0c0,14.7,12,27.16,23,31.29V252.24l0,.18L204.12,303,175,446.28l2.44,113.62a32.74,32.74,0,1,0,42.42,31.29c0-14.7-8.07-27.17-23.07-31.29V453.76l42,14.63v49.14c-11,4.13-23,16.59-23,31.29a32.66,32.66,0,1,0,65.31,0c0-14.7-7.35-27.16-23.35-31.29V475l31,10.64V629.22c-11,4.13-22.93,16.59-22.93,31.29a32.65,32.65,0,1,0,65.3,0c0-14.7-7.37-27.16-23.37-31.29V486.31l31-10.38v41.6c-11,4.13-22.89,16.59-22.89,31.29a32.87,32.87,0,0,0,32.84,32.74,32.53,32.53,0,0,0,32.45-32.74c0-14.7-7.4-27.16-23.4-31.29V469.45l47-15.57V559a32.17,32.17,0,0,0-27,32.2,32.68,32.68,0,1,0,65.36,0C443.11,577.94,435.76,566.54,423.76,561.39ZM429.7,27a13.48,13.48,0,1,1-13.48,13.48A13.5,13.5,0,0,1,429.7,27ZM167.81,27a13.48,13.48,0,1,1-13.48,13.48A13.5,13.5,0,0,1,167.81,27Zm19.25,577.7a13.48,13.48,0,1,1,13.48-13.47A13.49,13.49,0,0,1,187.06,604.66Zm61.63-42.36a13.48,13.48,0,1,1,13.48-13.48A13.49,13.49,0,0,1,248.69,562.3Zm100.13,0a13.48,13.48,0,1,1,13.48-13.48A13.5,13.5,0,0,1,348.82,562.3ZM368.08,65.47A13.48,13.48,0,1,1,354.6,79,13.5,13.5,0,0,1,368.08,65.47Zm-69.33,34.67a13.48,13.48,0,1,1-13.48,13.48A13.49,13.49,0,0,1,298.75,100.14ZM229.43,65.47A13.48,13.48,0,1,1,216,79,13.5,13.5,0,0,1,229.43,65.47ZM298.75,674a13.48,13.48,0,1,1,13.48-13.48A13.5,13.5,0,0,1,298.75,674Zm.8-205.89L262,455.47l37.51-37L337,455.09Zm57.3-19.42-49.09-49.9V359.62l43.71-27.43-9.56-68.51h31.85v-19H315.6l10.91,77H270l14.12-77H218.67l3.85,19h34.66L243.7,333.63,287,360.19,289,400.66l-45.41,48-43.18-13.33,27-140.57L187.85,250.5,231,201.39l57.77,22.86v1.43h3l7.73,3,7.4-3h.84v-1l56.89-23.31L411,251.46l-39.52,44.29L400,435.36Zm53.59,156a13.48,13.48,0,1,1,13.48-13.47A13.49,13.49,0,0,1,410.44,604.66Z"/><path class="cls-1" d="M85,460.24a32.7,32.7,0,0,0-14.24-27l14.85-62.34L49.76,329.57V218.08c16-4.12,23.4-16.59,23.4-31.29a32.71,32.71,0,1,0-65.42,0c0,14.7,12,27.17,23,31.29V336.71l33.93,40.36L52.34,429.68h-.07c-18.05,0-32.74,13.6-32.74,31.65s14.69,32.19,32.74,32.19S85,478.29,85,460.24ZM40.71,173.31a13.48,13.48,0,1,1-13.48,13.48A13.5,13.5,0,0,1,40.71,173.31ZM52.27,473.72a13.48,13.48,0,1,1,13.48-13.48A13.49,13.49,0,0,1,52.27,473.72Z"/><path class="cls-1" d="M487.18,497l-34.9-162.09,44.48-44V137.2c16-4.12,23.28-16.59,23.28-31.29a32.7,32.7,0,1,0-65.39,0c0,14.7,11.11,27.17,23.11,31.29V282.9l-46.4,45.73,36.89,172A32.73,32.73,0,1,0,487.18,497Zm.29-404.6A13.48,13.48,0,1,1,474,105.91,13.5,13.5,0,0,1,487.47,92.43ZM483.62,543a13.48,13.48,0,1,1,13.48-13.48A13.49,13.49,0,0,1,483.62,543Z"/></svg>